<svg xmlns="http://www.w3.org/2000/svg" viewBox="-40.0 -728.3 2255.4 1351.9">
  <defs><mask id="m" maskUnits="userSpaceOnUse" x="-40.0" y="-728.3" width="2255.4" height="768.1">
      <rect x="-40.0" y="-698.28" width="2255.4" height="62.72" fill="#fff"/>
      <rect x="-40.0" y="-597.12" width="2255.4" height="62.72" fill="#fff"/>
      <rect x="-40.0" y="-495.96" width="2255.4" height="62.72" fill="#fff"/>
      <rect x="-40.0" y="-394.80" width="2255.4" height="62.72" fill="#fff"/>
      <rect x="-40.0" y="-293.64" width="2255.4" height="62.72" fill="#fff"/>
      <rect x="-40.0" y="-192.48" width="2255.4" height="62.72" fill="#fff"/>
      <rect x="-40.0" y="-91.32" width="2255.4" height="62.72" fill="#fff"/>
  </mask></defs>
  <g mask="url(#m)"><path d="M 377.85 -102.97 Q 431.70 -102.97 482.25 -119.38 Q 532.95 -135.78 560.70 -161.09 L 560.70 -256.41 L 399.45 -256.41 L 399.45 -362.81 L 687.15 -362.81 L 687.15 -109.84 Q 634.65 -53.75 550.50 -21.88 Q 466.35 9.84 374.10 9.84 Q 212.85 9.84 126.15 -83.12 Q 39.45 -176.25 39.45 -347.19 Q 39.45 -517.03 126.60 -607.66 Q 213.75 -698.28 377.40 -698.28 Q 609.90 -698.28 673.20 -519.06 L 545.70 -479.06 Q 525.00 -531.25 480.90 -558.12 Q 436.95 -585.00 377.40 -585.00 Q 279.90 -585.00 229.20 -523.44 Q 178.65 -461.88 178.65 -347.19 Q 178.65 -230.47 230.85 -166.72 Q 283.20 -102.97 377.85 -102.97 Z M 1277.87 -0.00 L 1219.22 -175.78 L 967.52 -175.78 L 908.87 -0.00 L 770.57 -0.00 L 1011.62 -687.97 L 1174.67 -687.97 L 1414.67 -0.00 L 1277.87 -0.00 Z M 1093.07 -582.03 L 1090.37 -571.25 Q 1085.57 -553.75 1078.97 -531.25 Q 1072.52 -508.75 998.42 -284.22 L 1188.32 -284.22 L 1123.07 -481.88 L 1102.97 -548.28 L 1093.07 -582.03 Z M 2052.60 -0.00 L 2052.60 -417.03 Q 2052.60 -431.09 2052.90 -445.31 Q 2053.20 -459.53 2057.40 -566.88 Q 2024.10 -435.62 2008.20 -383.75 L 1889.10 -0.00 L 1790.70 -0.00 L 1671.60 -383.75 L 1621.35 -566.88 Q 1627.05 -453.59 1627.05 -417.03 L 1627.05 -0.00 L 1504.20 -0.00 L 1504.20 -687.97 L 1689.45 -687.97 L 1807.50 -303.28 L 1817.85 -266.09 L 1840.35 -173.91 L 1869.90 -284.22 L 1991.25 -687.97 L 2175.45 -687.97 L 2175.45 -0.00 L 2052.60 -0.00 Z" fill="#647DB6"/></g>
  <g transform="translate(0.0,222.3) scale(0.3984)"><path d="M 92.34 -0.00 L 92.34 -687.97 L 185.62 -687.97 L 185.62 -0.00 L 92.34 -0.00 Z M 548.30 -3.91 Q 504.86 7.81 459.55 7.81 Q 354.08 7.81 354.08 -111.88 L 354.08 -464.38 L 292.99 -464.38 L 292.99 -528.28 L 357.36 -528.28 L 383.30 -646.56 L 441.89 -646.56 L 441.89 -528.28 L 539.55 -528.28 L 539.55 -464.38 L 441.89 -464.38 L 441.89 -130.94 Q 441.89 -92.81 454.24 -77.34 Q 466.74 -62.03 497.52 -62.03 Q 515.18 -62.03 548.30 -68.91 L 548.30 -3.91 Z M 685.51 -471.72 L 616.76 -471.72 L 606.45 -687.97 L 696.29 -687.97 L 685.51 -471.72 Z M 1210.49 -145.94 Q 1210.49 -71.25 1154.08 -30.62 Q 1097.68 9.84 996.11 9.84 Q 897.52 9.84 843.93 -22.66 Q 790.49 -55.16 774.39 -124.06 L 852.05 -139.22 Q 863.30 -96.72 898.46 -76.88 Q 933.61 -57.19 996.11 -57.19 Q 1062.99 -57.19 1093.93 -77.66 Q 1125.02 -98.12 1125.02 -139.22 Q 1125.02 -170.47 1103.46 -190.00 Q 1082.05 -209.53 1034.24 -222.19 L 971.27 -238.75 Q 895.49 -258.28 863.46 -277.03 Q 831.58 -295.94 813.46 -322.81 Q 795.49 -349.69 795.49 -388.75 Q 795.49 -460.94 846.89 -498.75 Q 898.46 -536.56 997.05 -536.56 Q 1084.55 -536.56 1135.96 -505.78 Q 1187.52 -475.16 1201.11 -407.19 L 1122.05 -397.50 Q 1114.71 -432.66 1082.68 -451.41 Q 1050.80 -470.16 997.05 -470.16 Q 937.52 -470.16 909.08 -452.03 Q 880.80 -434.06 880.80 -397.50 Q 880.80 -375.00 892.52 -360.31 Q 904.24 -345.78 927.21 -335.47 Q 950.18 -325.16 1023.93 -307.19 Q 1093.77 -289.53 1124.55 -274.69 Q 1155.33 -259.84 1173.14 -241.72 Q 1190.96 -223.59 1200.64 -199.84 Q 1210.49 -176.25 1210.49 -145.94 Z M 1899.41 -0.00 L 1899.41 -335.00 Q 1899.41 -411.56 1878.32 -440.78 Q 1857.38 -470.16 1802.70 -470.16 Q 1746.60 -470.16 1713.79 -427.19 Q 1681.13 -384.22 1681.13 -306.09 L 1681.13 -0.00 L 1593.79 -0.00 L 1593.79 -415.47 Q 1593.79 -507.81 1590.82 -528.28 L 1673.79 -528.28 Q 1674.26 -525.94 1674.73 -515.16 Q 1675.35 -504.38 1675.98 -490.47 Q 1676.76 -476.56 1677.70 -437.97 L 1679.26 -437.97 Q 1707.54 -494.22 1744.10 -516.09 Q 1780.82 -538.12 1833.48 -538.12 Q 1893.63 -538.12 1928.48 -514.22 Q 1963.32 -490.31 1977.07 -437.97 L 1978.48 -437.97 Q 2005.82 -491.25 2044.57 -514.69 Q 2083.48 -538.12 2138.63 -538.12 Q 2218.79 -538.12 2255.04 -494.69 Q 2291.45 -451.25 2291.45 -352.03 L 2291.45 -0.00 L 2204.57 -0.00 L 2204.57 -335.00 Q 2204.57 -411.56 2183.48 -440.78 Q 2162.54 -470.16 2107.85 -470.16 Q 2050.35 -470.16 2018.32 -427.50 Q 1986.29 -384.84 1986.29 -306.09 L 1986.29 -0.00 L 1899.41 -0.00 Z M 2450.70 207.50 Q 2414.61 207.50 2390.08 202.19 L 2390.08 136.25 Q 2408.67 139.22 2431.17 139.22 Q 2513.20 139.22 2561.02 18.59 L 2569.30 -2.50 L 2359.92 -528.28 L 2453.67 -528.28 L 2564.92 -236.41 Q 2567.42 -229.53 2570.86 -220.00 Q 2574.30 -210.47 2592.73 -156.25 Q 2611.33 -102.03 2612.73 -95.78 L 2646.95 -191.88 L 2762.73 -528.28 L 2855.55 -528.28 L 2652.42 -0.00 Q 2619.61 84.53 2591.33 125.78 Q 2563.05 167.03 2528.52 187.19 Q 2494.14 207.50 2450.70 207.50 Z M 3708.54 -0.00 L 3606.50 -0.00 L 3514.16 -373.59 L 3496.66 -456.09 Q 3492.13 -434.06 3482.91 -392.81 Q 3473.69 -351.56 3383.38 -0.00 L 3281.82 -0.00 L 3133.85 -528.28 L 3220.72 -528.28 L 3310.10 -169.38 Q 3313.54 -157.66 3331.04 -72.81 L 3339.32 -108.91 L 3449.79 -528.28 L 3544.00 -528.28 L 3636.19 -165.47 L 3658.69 -72.81 L 3673.85 -140.62 L 3774.00 -528.28 L 3859.94 -528.28 L 3708.54 -0.00 Z M 4371.64 -264.69 Q 4371.64 -125.94 4310.55 -57.97 Q 4249.45 9.84 4133.36 9.84 Q 4017.58 9.84 3958.52 -60.78 Q 3899.45 -131.41 3899.45 -264.69 Q 3899.45 -538.12 4136.17 -538.12 Q 4257.27 -538.12 4314.45 -471.41 Q 4371.64 -404.84 4371.64 -264.69 Z M 4279.30 -264.69 Q 4279.30 -374.06 4246.80 -423.59 Q 4214.30 -473.12 4137.73 -473.12 Q 4060.55 -473.12 4026.02 -422.50 Q 3991.64 -372.03 3991.64 -264.69 Q 3991.64 -160.16 4025.55 -107.66 Q 4059.61 -55.16 4132.27 -55.16 Q 4211.48 -55.16 4245.39 -105.94 Q 4279.30 -156.72 4279.30 -264.69 Z M 4482.95 -0.00 L 4482.95 -405.31 Q 4482.95 -460.94 4479.98 -528.28 L 4562.95 -528.28 Q 4566.86 -438.44 4566.86 -420.47 L 4568.89 -420.47 Q 4589.82 -488.28 4617.17 -513.12 Q 4644.51 -538.12 4694.36 -538.12 Q 4711.86 -538.12 4729.98 -533.28 L 4729.98 -452.66 Q 4712.48 -457.50 4683.11 -457.50 Q 4628.42 -457.50 4599.51 -410.31 Q 4570.76 -363.28 4570.76 -275.47 L 4570.76 -0.00 L 4482.95 -0.00 Z M 4813.93 -0.00 L 4813.93 -724.69 L 4901.89 -724.69 L 4901.89 -0.00 L 4813.93 -0.00 Z M 5369.69 -85.00 Q 5345.16 -34.22 5304.84 -12.19 Q 5264.69 9.84 5205.16 9.84 Q 5105.00 9.84 5057.81 -57.50 Q 5010.78 -125.00 5010.78 -261.72 Q 5010.78 -538.12 5205.16 -538.12 Q 5265.16 -538.12 5305.16 -516.09 Q 5345.16 -494.22 5369.69 -446.25 L 5370.62 -446.25 L 5369.69 -505.31 L 5369.69 -724.69 L 5457.50 -724.69 L 5457.50 -108.91 Q 5457.50 -26.41 5460.47 -0.00 L 5376.41 -0.00 Q 5375.00 -7.81 5373.28 -36.09 Q 5371.56 -64.53 5371.56 -85.00 L 5369.69 -85.00 Z M 5102.97 -264.69 Q 5102.97 -153.75 5132.19 -105.94 Q 5161.56 -58.12 5227.50 -58.12 Q 5302.19 -58.12 5335.94 -109.84 Q 5369.69 -161.56 5369.69 -270.47 Q 5369.69 -375.47 5335.94 -424.22 Q 5302.19 -473.12 5228.59 -473.12 Q 5162.19 -473.12 5132.50 -424.06 Q 5102.97 -375.00 5102.97 -264.69 Z" transform="translate(-0.0,724.7)" fill="#647DB6"/></g>
</svg>