<svg xmlns="http://www.w3.org/2000/svg" viewBox="-20.0 -718.3 2215.4 748.1">
  <defs><mask id="m" maskUnits="userSpaceOnUse" x="-40.0" y="-718.3" width="2255.4" height="748.1"><rect x="-40.0" y="-698.28" width="2255.4" height="62.72" fill="#fff"/>
      <rect x="-40.0" y="-597.12" width="2255.4" height="62.72" fill="#fff"/>
      <rect x="-40.0" y="-495.96" width="2255.4" height="62.72" fill="#fff"/>
      <rect x="-40.0" y="-394.80" width="2255.4" height="62.72" fill="#fff"/>
      <rect x="-40.0" y="-293.64" width="2255.4" height="62.72" fill="#fff"/>
      <rect x="-40.0" y="-192.48" width="2255.4" height="62.72" fill="#fff"/>
      <rect x="-40.0" y="-91.32" width="2255.4" height="62.72" fill="#fff"/></mask></defs>
  <g mask="url(#m)"><path d="M 377.85 -102.97 Q 431.70 -102.97 482.25 -119.38 Q 532.95 -135.78 560.70 -161.09 L 560.70 -256.41 L 399.45 -256.41 L 399.45 -362.81 L 687.15 -362.81 L 687.15 -109.84 Q 634.65 -53.75 550.50 -21.88 Q 466.35 9.84 374.10 9.84 Q 212.85 9.84 126.15 -83.12 Q 39.45 -176.25 39.45 -347.19 Q 39.45 -517.03 126.60 -607.66 Q 213.75 -698.28 377.40 -698.28 Q 609.90 -698.28 673.20 -519.06 L 545.70 -479.06 Q 525.00 -531.25 480.90 -558.12 Q 436.95 -585.00 377.40 -585.00 Q 279.90 -585.00 229.20 -523.44 Q 178.65 -461.88 178.65 -347.19 Q 178.65 -230.47 230.85 -166.72 Q 283.20 -102.97 377.85 -102.97 Z M 1277.87 -0.00 L 1219.22 -175.78 L 967.52 -175.78 L 908.87 -0.00 L 770.57 -0.00 L 1011.62 -687.97 L 1174.67 -687.97 L 1414.67 -0.00 L 1277.87 -0.00 Z M 1093.07 -582.03 L 1090.37 -571.25 Q 1085.57 -553.75 1078.97 -531.25 Q 1072.52 -508.75 998.42 -284.22 L 1188.32 -284.22 L 1123.07 -481.88 L 1102.97 -548.28 L 1093.07 -582.03 Z M 2052.60 -0.00 L 2052.60 -417.03 Q 2052.60 -431.09 2052.90 -445.31 Q 2053.20 -459.53 2057.40 -566.88 Q 2024.10 -435.62 2008.20 -383.75 L 1889.10 -0.00 L 1790.70 -0.00 L 1671.60 -383.75 L 1621.35 -566.88 Q 1627.05 -453.59 1627.05 -417.03 L 1627.05 -0.00 L 1504.20 -0.00 L 1504.20 -687.97 L 1689.45 -687.97 L 1807.50 -303.28 L 1817.85 -266.09 L 1840.35 -173.91 L 1869.90 -284.22 L 1991.25 -687.97 L 2175.45 -687.97 L 2175.45 -0.00 L 2052.60 -0.00 Z" fill="#ffffff"/></g>
</svg>