<svg xmlns="http://www.w3.org/2000/svg" viewBox="-180.0 -882.1 1075.8 1075.8">
  <defs><mask id="s" maskUnits="userSpaceOnUse" x="-180.0" y="-882.1" width="1075.8" height="1075.8"><rect x="-30.0" y="-698.28" width="775.8" height="62.72" fill="#fff"/>
      <rect x="-30.0" y="-597.12" width="775.8" height="62.72" fill="#fff"/>
      <rect x="-30.0" y="-495.96" width="775.8" height="62.72" fill="#fff"/>
      <rect x="-30.0" y="-394.80" width="775.8" height="62.72" fill="#fff"/>
      <rect x="-30.0" y="-293.64" width="775.8" height="62.72" fill="#fff"/>
      <rect x="-30.0" y="-192.48" width="775.8" height="62.72" fill="#fff"/>
      <rect x="-30.0" y="-91.32" width="775.8" height="62.72" fill="#fff"/></mask></defs>
  <rect x="-180.0" y="-882.1" width="1075.8" height="1075.8" rx="193.6" fill="#4D93A2"/>
  <g mask="url(#s)"><path d="M 393.59 -102.97 Q 449.69 -102.97 502.34 -119.38 Q 555.16 -135.78 584.06 -161.09 L 584.06 -256.41 L 416.09 -256.41 L 416.09 -362.81 L 715.78 -362.81 L 715.78 -109.84 Q 661.09 -53.75 573.44 -21.88 Q 485.78 9.84 389.69 9.84 Q 221.72 9.84 131.41 -83.12 Q 41.09 -176.25 41.09 -347.19 Q 41.09 -517.03 131.88 -607.66 Q 222.66 -698.28 393.12 -698.28 Q 635.31 -698.28 701.25 -519.06 L 568.44 -479.06 Q 546.88 -531.25 500.94 -558.12 Q 455.16 -585.00 393.12 -585.00 Q 291.56 -585.00 238.75 -523.44 Q 186.09 -461.88 186.09 -347.19 Q 186.09 -230.47 240.47 -166.72 Q 295.00 -102.97 393.59 -102.97 Z" fill="#fff"/></g>
</svg>